<svg viewBox="0 0 200 200" xmlns="http://www.w3.org/2000/svg">
  <!-- Background circle with gradient -->
  <defs>
    <radialGradient id="bgGradient" cx="50%" cy="30%" r="70%">
      <stop offset="0%" style="stop-color:#1e40af;stop-opacity:1" />
      <stop offset="100%" style="stop-color:#0f172a;stop-opacity:1" />
    </radialGradient>
    
    <linearGradient id="shieldGradient" x1="0%" y1="0%" x2="0%" y2="100%">
      <stop offset="0%" style="stop-color:#60a5fa;stop-opacity:1" />
      <stop offset="100%" style="stop-color:#2563eb;stop-opacity:1" />
    </linearGradient>
    
    <linearGradient id="scanGradient" x1="0%" y1="0%" x2="100%" y2="0%">
      <stop offset="0%" style="stop-color:#10b981;stop-opacity:0.8" />
      <stop offset="50%" style="stop-color:#34d399;stop-opacity:1" />
      <stop offset="100%" style="stop-color:#10b981;stop-opacity:0.8" />
    </linearGradient>
    
    <!-- Glow filter -->
    <filter id="glow">
      <feGaussianBlur stdDeviation="3" result="coloredBlur"/>
      <feMerge> 
        <feMergeNode in="coloredBlur"/>
        <feMergeNode in="SourceGraphic"/>
      </feMerge>
    </filter>
  </defs>
  
  <!-- Main background -->
  <circle cx="100" cy="100" r="95" fill="url(#bgGradient)" stroke="#1e40af" stroke-width="2"/>
  
  <!-- Shield outline -->
  <path d="M100 55 L130 70 L130 115 Q130 135 100 150 Q70 135 70 115 L70 70 Z" 
        fill="none" stroke="#60a5fa" stroke-width="2" opacity="0.3"/>
  
  <!-- Main shield -->
  <path d="M100 60 L125 72 L125 110 Q125 127 100 140 Q75 127 75 110 L75 72 Z" 
        fill="url(#shieldGradient)" stroke="#3b82f6" stroke-width="1.5"/>
  
  <!-- Shield highlight -->
  <path d="M100 65 L115 73 L115 100 Q115 110 100 117 Q85 110 85 100 L85 73 Z" 
        fill="#93c5fd" opacity="0.4"/>
  
  <!-- Central scanning element -->
  <circle cx="100" cy="100" r="18" fill="#0f172a" stroke="#60a5fa" stroke-width="1.5"/>
  <circle cx="100" cy="100" r="12" fill="none" stroke="#34d399" stroke-width="2"/>
  <circle cx="100" cy="100" r="6" fill="#10b981"/>
  
  <!-- Scanning radar lines -->
  <g transform="translate(100,100)">
    <line x1="0" y1="0" x2="0" y2="-25" stroke="url(#scanGradient)" stroke-width="2" opacity="0.8">
      <animateTransform attributeName="transform" attributeType="XML" type="rotate" 
                        from="0 0 0" to="360 0 0" dur="3s" repeatCount="indefinite"/>
    </line>
    <line x1="0" y1="0" x2="17" y2="-17" stroke="url(#scanGradient)" stroke-width="1.5" opacity="0.6">
      <animateTransform attributeName="transform" attributeType="XML" type="rotate" 
                        from="45 0 0" to="405 0 0" dur="3s" repeatCount="indefinite"/>
    </line>
  </g>
  
  <!-- Detection dots around shield -->
  <circle cx="85" cy="55" r="2" fill="#ef4444">
    <animate attributeName="opacity" values="0.3;1;0.3" dur="2s" repeatCount="indefinite"/>
  </circle>
  <circle cx="115" cy="60" r="2" fill="#f59e0b">
    <animate attributeName="opacity" values="1;0.3;1" dur="1.5s" repeatCount="indefinite"/>
  </circle>
  <circle cx="90" cy="95" r="2" fill="#ef4444">
    <animate attributeName="opacity" values="0.5;1;0.5" dur="2.5s" repeatCount="indefinite"/>
  </circle>
  
  <!-- Warning symbols -->
  <g transform="translate(65,55)" fill="#ef4444" opacity="0.7">
    <polygon points="0,-4 3.5,3 -3.5,3"/>
    <circle cx="0" cy="1" r="0.5" fill="#ffffff"/>
    <line x1="0" y1="-1" x2="0" y2="0.5" stroke="#ffffff" stroke-width="0.5"/>
  </g>
  
  <g transform="translate(135,65)" fill="#f59e0b" opacity="0.7">
    <polygon points="0,-4 3.5,3 -3.5,3"/>
    <circle cx="0" cy="1" r="0.5" fill="#ffffff"/>
    <line x1="0" y1="-1" x2="0" y2="0.5" stroke="#ffffff" stroke-width="0.5"/>
  </g>
  
  <!-- Tech grid pattern -->
  <g opacity="0.1" stroke="#60a5fa" stroke-width="0.5" fill="none">
    <line x1="40" y1="40" x2="160" y2="40"/>
    <line x1="40" y1="160" x2="160" y2="160"/>
    <line x1="40" y1="40" x2="40" y2="160"/>
    <line x1="160" y1="40" x2="160" y2="160"/>
    <line x1="70" y1="40" x2="70" y2="160"/>
    <line x1="130" y1="40" x2="130" y2="160"/>
    <line x1="40" y1="70" x2="160" y2="70"/>
    <line x1="40" y1="130" x2="160" y2="130"/>
  </g>
  
  <!-- Outer scanning ring -->
  <circle cx="100" cy="100" r="85" fill="none" stroke="#10b981" stroke-width="1" opacity="0.3" stroke-dasharray="5,10">
    <animateTransform attributeName="transform" attributeType="XML" type="rotate" 
                      from="0 100 100" to="360 100 100" dur="8s" repeatCount="indefinite"/>
  </circle>
  

</svg>